# xmcd CD database file
# Copyright (C) 1993-1998 Ti Kan
# 
# Track frame offsets:
#     150
#     17102
#     34695
#     46175
#     60187
#     79665
#     93875
#     109282
#     122247
#     137122
#     155915
#     167467
#     180542
#     197225
#     216197
#     232617
#     245995
#     266565
#     276985
#     290112
# 
# Disc length: 4088 seconds
# 
# Revision: 1
# Processed by: cddbd v1.5.2PL0 Copyright (c) Steve Scherf et al.
# Submitted via: DiscPlay 4.0.4
# 
DISCID=200ff614
DTITLE=Garth Brooks - No Fences (Australian)
DYEAR=1990
DGENRE=Country
TTITLE0=The Thunder Rolls
TTITLE1=New Way To Fly
TTITLE2=Two Of A Kind Workin' On A Full House
TTITLE3=Victim Of The Game
TTITLE4=Friends In Low Places
TTITLE5=Wild Horses
TTITLE6=Unanswered Prayers
TTITLE7=Same Old Story
TTITLE8=Mr Blue
TTITLE9=Wolves
TTITLE10=Not Counting You
TTITLE11=I've Got A Good Thing Going
TTITLE12=If Tomorrow Never Comes
TTITLE13=Every Time That It Rains
TTITLE14=Alabama Clay
TTITLE15=Much Too Young (to feel this damn old)
TTITLE16=Cowboy Bill
TTITLE17=Nobody Gets Off In This Town
TTITLE18=I Know One
TTITLE19=The Dance
EXTD=
EXTT0=
EXTT1=
EXTT2=
EXTT3=
EXTT4=
EXTT5=
EXTT6=
EXTT7=
EXTT8=
EXTT9=
EXTT10=
EXTT11=
EXTT12=
EXTT13=
EXTT14=
EXTT15=
EXTT16=
EXTT17=
EXTT18=
EXTT19=
PLAYORDER=
